<svg width="17" height="13" viewBox="0 0 17 13" fill="none" xmlns="http://www.w3.org/2000/svg">
<path d="M8.69835 5.23254C7.38166 5.23254 6.27734 6.28165 6.27734 7.53251C6.27734 8.78337 7.38166 9.83248 8.69835 9.83248C10.015 9.83248 11.1194 8.78337 11.1194 7.53251C11.1194 6.2413 10.015 5.23254 8.69835 5.23254Z" fill="#211915"/>
<path d="M15.4093 2.65012H12.1813L11.884 1.80276C11.6716 1.15716 11.6291 0.592255 10.9071 0.592255H6.40484C5.68279 0.592255 5.72526 1.11681 5.42795 1.80276L5.13063 2.65012H1.86015C1.18057 2.65012 0.585938 3.21502 0.585938 3.86063V11.4061C0.585938 12.0921 1.18057 12.6166 1.86015 12.6166H15.4093C16.0889 12.6166 16.6835 12.0921 16.6835 11.4061V3.86063C16.6835 3.17467 16.1313 2.65012 15.4093 2.65012ZM2.45478 5.07114C1.9451 5.07114 1.52036 4.66764 1.52036 4.18343C1.52036 3.69923 1.9451 3.29573 2.45478 3.29573C2.96447 3.29573 3.38921 3.69923 3.38921 4.18343C3.38921 4.66764 2.922 5.07114 2.45478 5.07114ZM8.69843 11.3254C6.48979 11.3254 4.70589 9.63072 4.70589 7.53251C4.70589 5.43429 6.48979 3.73958 8.69843 3.73958C10.9071 3.73958 12.691 5.43429 12.691 7.53251C12.691 9.63072 10.9071 11.3254 8.69843 11.3254Z" fill="#211915"/>
</svg>
