<svg width="26" height="25" viewBox="0 0 26 25" fill="none" xmlns="http://www.w3.org/2000/svg">
<path d="M25.0846 24.2367L20.2513 19.4034H8.16797C7.50339 19.4034 6.93446 19.1668 6.4612 18.6935C5.98793 18.2202 5.7513 17.6513 5.7513 16.9867V15.7784H19.043C19.7076 15.7784 20.2765 15.5418 20.7497 15.0685C21.223 14.5952 21.4596 14.0263 21.4596 13.3617V4.9034H22.668C23.3326 4.9034 23.9015 5.14003 24.3747 5.6133C24.848 6.08656 25.0846 6.65548 25.0846 7.32007V24.2367ZM3.33464 12.3649L4.75443 10.9451H16.6263V2.48673H3.33464V12.3649ZM0.917969 18.1951V2.48673C0.917969 1.82215 1.1546 1.25323 1.62786 0.779964C2.10113 0.3067 2.67005 0.0700684 3.33464 0.0700684H16.6263C17.2909 0.0700684 17.8598 0.3067 18.3331 0.779964C18.8063 1.25323 19.043 1.82215 19.043 2.48673V10.9451C19.043 11.6097 18.8063 12.1786 18.3331 12.6518C17.8598 13.1251 17.2909 13.3617 16.6263 13.3617H5.7513L0.917969 18.1951Z" fill="#5F6368"/>
</svg>
