<svg width="30" height="30" viewBox="0 0 30 30" fill="none" xmlns="http://www.w3.org/2000/svg">
<path d="M12.7601 21.8839L24.1184 10.5255L21.8628 8.26997L12.7601 17.3727L8.1684 12.7811L5.91285 15.0366L12.7601 21.8839ZM3.73785 29.6172C2.85174 29.6172 2.09317 29.3017 1.46215 28.6707C0.831134 28.0396 0.515625 27.2811 0.515625 26.395V3.83941C0.515625 2.9533 0.831134 2.19473 1.46215 1.56372C2.09317 0.932697 2.85174 0.617188 3.73785 0.617188H26.2934C27.1795 0.617188 27.9381 0.932697 28.5691 1.56372C29.2001 2.19473 29.5156 2.9533 29.5156 3.83941V26.395C29.5156 27.2811 29.2001 28.0396 28.5691 28.6707C27.9381 29.3017 27.1795 29.6172 26.2934 29.6172H3.73785ZM3.73785 26.395H26.2934V3.83941H3.73785V26.395Z" fill="#5F6368"/>
</svg>
