<svg width="25" height="25" viewBox="0 0 25 25" fill="none" xmlns="http://www.w3.org/2000/svg">
<path d="M16.1802 17.9937L17.8719 16.302L13.401 11.8312V6.27287H10.9844V12.7979L16.1802 17.9937ZM12.1927 24.3979C10.5212 24.3979 8.95035 24.0807 7.48021 23.4463C6.01007 22.8119 4.73125 21.951 3.64375 20.8635C2.55625 19.776 1.69531 18.4972 1.06094 17.027C0.426562 15.5569 0.109375 13.9861 0.109375 12.3145C0.109375 10.643 0.426562 9.07217 1.06094 7.60203C1.69531 6.1319 2.55625 4.85308 3.64375 3.76558C4.73125 2.67808 6.01007 1.81714 7.48021 1.18276C8.95035 0.548389 10.5212 0.231201 12.1927 0.231201C13.8642 0.231201 15.4351 0.548389 16.9052 1.18276C18.3753 1.81714 19.6542 2.67808 20.7417 3.76558C21.8292 4.85308 22.6901 6.1319 23.3245 7.60203C23.9589 9.07217 24.276 10.643 24.276 12.3145C24.276 13.9861 23.9589 15.5569 23.3245 17.027C22.6901 18.4972 21.8292 19.776 20.7417 20.8635C19.6542 21.951 18.3753 22.8119 16.9052 23.4463C15.4351 24.0807 13.8642 24.3979 12.1927 24.3979ZM12.1927 21.9812C14.8712 21.9812 17.1519 21.0397 19.0349 19.1567C20.9179 17.2737 21.8594 14.993 21.8594 12.3145C21.8594 9.63606 20.9179 7.35533 19.0349 5.47235C17.1519 3.58936 14.8712 2.64787 12.1927 2.64787C9.51424 2.64787 7.23351 3.58936 5.35052 5.47235C3.46753 7.35533 2.52604 9.63606 2.52604 12.3145C2.52604 14.993 3.46753 17.2737 5.35052 19.1567C7.23351 21.0397 9.51424 21.9812 12.1927 21.9812Z" fill="#5F6368"/>
</svg>
