<svg width="29" height="30" viewBox="0 0 29 30" fill="none" xmlns="http://www.w3.org/2000/svg">
<path d="M14.1901 29.3438C12.2385 29.3438 10.4045 28.9631 8.68798 28.2019C6.97149 27.4406 5.47838 26.4075 4.20865 25.1025C2.93892 23.7975 1.93372 22.2629 1.19304 20.4987C0.452369 18.7346 0.0820312 16.8496 0.0820312 14.8438C0.0820312 12.8379 0.452369 10.9529 1.19304 9.18875C1.93372 7.42458 2.93892 5.89 4.20865 4.585C5.47838 3.28 6.97149 2.24687 8.68798 1.48562C10.4045 0.724375 12.2385 0.34375 14.1901 0.34375C16.2593 0.34375 18.2168 0.77875 20.0626 1.64875C21.9084 2.51875 23.5015 3.75125 24.8418 5.34625L14.1901 16.2937V3.24375C11.0393 3.24375 8.37054 4.3675 6.18379 6.615C3.99703 8.8625 2.90365 11.6054 2.90365 14.8438C2.90365 18.0821 3.99703 20.825 6.18379 23.0725C8.37054 25.32 11.0393 26.4437 14.1901 26.4437C15.8126 26.4437 17.3645 26.0994 18.8458 25.4106C20.3272 24.7219 21.5969 23.7371 22.655 22.4562V26.4437C21.4088 27.3621 20.0685 28.075 18.6342 28.5825C17.1999 29.09 15.7185 29.3438 14.1901 29.3438ZM25.4766 23.5437V11.9437H28.2982V23.5437H25.4766ZM26.8874 29.3438C26.4877 29.3438 26.1526 29.2048 25.8822 28.9269C25.6118 28.649 25.4766 28.3046 25.4766 27.8937C25.4766 27.4829 25.6118 27.1385 25.8822 26.8606C26.1526 26.5827 26.4877 26.4437 26.8874 26.4437C27.2872 26.4437 27.6222 26.5827 27.8926 26.8606C28.163 27.1385 28.2982 27.4829 28.2982 27.8937C28.2982 28.3046 28.163 28.649 27.8926 28.9269C27.6222 29.2048 27.2872 29.3438 26.8874 29.3438Z" fill="#5F6368"/>
</svg>
