<svg width="15" height="16" viewBox="0 0 15 16" fill="none" xmlns="http://www.w3.org/2000/svg">
<path fill-rule="evenodd" clip-rule="evenodd" d="M7.40131 10C7.79167 10 8.17326 9.8827 8.49783 9.66294C8.8224 9.44318 9.07536 9.13082 9.22474 8.76537C9.37413 8.39991 9.41323 7.99778 9.33708 7.60982C9.26092 7.22186 9.07294 6.86549 8.79692 6.58579C8.52089 6.30608 8.1692 6.1156 7.78634 6.03843C7.40349 5.96126 7.00664 6.00087 6.646 6.15224C6.28536 6.30362 5.97713 6.55996 5.76026 6.88886C5.54339 7.21776 5.42763 7.60444 5.42763 8C5.42919 8.52995 5.63762 9.03773 6.00742 9.41247C6.37722 9.7872 6.87834 9.99842 7.40131 10ZM3.35525 3.6C4.02778 2.9767 4.84107 2.5303 5.72367 2.3L6.51316 0H8.48684L9.2763 2.3C10.1425 2.57124 10.9473 3.01301 11.6447 3.6L14.0132 3.1L15 4.9L13.421 6.7C13.5029 7.12808 13.536 7.56427 13.5197 8C13.5197 8.4 13.421 8.9 13.421 9.3L15 11.1L14.0132 12.9L11.6447 12.4C10.9722 13.0233 10.1589 13.4697 9.2763 13.7L8.48684 16H6.51316L5.72367 13.7C4.85749 13.4288 4.05265 12.987 3.35525 12.4L0.986841 12.9L0 11.1L1.57895 9.3C1.4971 8.87192 1.46398 8.43573 1.48026 8C1.48026 7.6 1.57895 7.1 1.57895 6.7L0 4.9L0.986841 3.1L3.35525 3.6Z" fill="black"/>
</svg>
