<svg width="26" height="29" viewBox="0 0 26 29" fill="none" xmlns="http://www.w3.org/2000/svg">
<path d="M0.0976562 6.52485V0.0732422H6.54927V2.65389H2.6783V6.52485H0.0976562ZM23.3235 6.52485V2.65389H19.4525V0.0732422H25.9041V6.52485H23.3235ZM0.0976562 28.4603V22.0087H2.6783V25.8797H6.54927V28.4603H0.0976562ZM19.4525 28.4603V25.8797H23.3235V22.0087H25.9041V28.4603H19.4525ZM6.54927 22.0087H19.4525V6.52485H6.54927V22.0087ZM6.54927 24.5894C5.83959 24.5894 5.23206 24.3367 4.72669 23.8313C4.22131 23.3259 3.96862 22.7184 3.96862 22.0087V6.52485C3.96862 5.81518 4.22131 5.20765 4.72669 4.70227C5.23206 4.1969 5.83959 3.94421 6.54927 3.94421H19.4525C20.1622 3.94421 20.7697 4.1969 21.2751 4.70227C21.7805 5.20765 22.0331 5.81518 22.0331 6.52485V22.0087C22.0331 22.7184 21.7805 23.3259 21.2751 23.8313C20.7697 24.3367 20.1622 24.5894 19.4525 24.5894H6.54927ZM9.12991 11.6861H16.8718V9.1055H9.12991V11.6861ZM9.12991 15.5571H16.8718V12.9765H9.12991V15.5571ZM9.12991 19.4281H16.8718V16.8474H9.12991V19.4281Z" fill="#5F6368"/>
</svg>
