<svg width="26" height="25" viewBox="0 0 26 25" fill="none" xmlns="http://www.w3.org/2000/svg">
<path d="M11.8513 20.8686H13.9659V19.3582C14.9728 19.1769 15.8388 18.7842 16.5638 18.18C17.2888 17.5759 17.6513 16.6797 17.6513 15.4915C17.6513 14.6457 17.4096 13.8703 16.9263 13.1654C16.443 12.4606 15.4763 11.8463 14.0263 11.3227C12.818 10.92 11.9822 10.5675 11.519 10.2654C11.0558 9.96336 10.8242 9.55052 10.8242 9.0269C10.8242 8.50329 11.0105 8.09045 11.3831 7.78836C11.7556 7.48628 12.2944 7.33524 12.9992 7.33524C13.6437 7.33524 14.1471 7.49131 14.5096 7.80347C14.8721 8.11562 15.1339 8.50329 15.2951 8.96649L17.2284 8.18107C17.0069 7.47621 16.599 6.86197 16.0049 6.33836C15.4109 5.81475 14.7513 5.52274 14.0263 5.46232V3.9519H11.9117V5.46232C10.9048 5.68385 10.1194 6.1269 9.55547 6.79149C8.99158 7.45607 8.70964 8.20121 8.70964 9.0269C8.70964 9.97343 8.98654 10.7387 9.54036 11.3227C10.0942 11.9068 10.9652 12.4102 12.1534 12.8332C13.4221 13.2963 14.3032 13.7092 14.7966 14.0717C15.29 14.4342 15.5367 14.9075 15.5367 15.4915C15.5367 16.1561 15.3001 16.6444 14.8268 16.9566C14.3536 17.2687 13.7846 17.4248 13.1201 17.4248C12.4555 17.4248 11.8664 17.2184 11.3529 16.8055C10.8393 16.3927 10.4617 15.7734 10.2201 14.9477L8.2263 15.7332C8.50825 16.6998 8.94627 17.4802 9.54036 18.0743C10.1345 18.6684 10.9048 19.0762 11.8513 19.2977V20.8686ZM12.9388 24.4936C11.2673 24.4936 9.69644 24.1764 8.2263 23.542C6.75616 22.9076 5.47734 22.0467 4.38984 20.9592C3.30234 19.8717 2.44141 18.5929 1.80703 17.1227C1.17266 15.6526 0.855469 14.0818 0.855469 12.4102C0.855469 10.7387 1.17266 9.16788 1.80703 7.69774C2.44141 6.2276 3.30234 4.94878 4.38984 3.86128C5.47734 2.77378 6.75616 1.91284 8.2263 1.27847C9.69644 0.644092 11.2673 0.326904 12.9388 0.326904C14.6103 0.326904 16.1812 0.644092 17.6513 1.27847C19.1214 1.91284 20.4003 2.77378 21.4878 3.86128C22.5753 4.94878 23.4362 6.2276 24.0706 7.69774C24.7049 9.16788 25.0221 10.7387 25.0221 12.4102C25.0221 14.0818 24.7049 15.6526 24.0706 17.1227C23.4362 18.5929 22.5753 19.8717 21.4878 20.9592C20.4003 22.0467 19.1214 22.9076 17.6513 23.542C16.1812 24.1764 14.6103 24.4936 12.9388 24.4936ZM12.9388 22.0769C15.6374 22.0769 17.9232 21.1404 19.7961 19.2675C21.669 17.3946 22.6055 15.1088 22.6055 12.4102C22.6055 9.71163 21.669 7.42586 19.7961 5.55295C17.9232 3.68003 15.6374 2.74357 12.9388 2.74357C10.2402 2.74357 7.95443 3.68003 6.08151 5.55295C4.20859 7.42586 3.27214 9.71163 3.27214 12.4102C3.27214 15.1088 4.20859 17.3946 6.08151 19.2675C7.95443 21.1404 10.2402 22.0769 12.9388 22.0769Z" fill="#5F6368"/>
</svg>
