<svg width="28" height="28" viewBox="0 0 28 28" fill="none" xmlns="http://www.w3.org/2000/svg">
<path d="M13.9987 27.4449C11.7431 27.4449 9.66884 26.9314 7.77578 25.9043C5.88273 24.8772 4.33203 23.5078 3.1237 21.7959V25.0282H0.707031V17.7782H7.95703V20.1949H4.96641C5.93307 21.6449 7.20686 22.813 8.78776 23.6991C10.3687 24.5852 12.1056 25.0282 13.9987 25.0282C15.5091 25.0282 16.9239 24.7413 18.243 24.1673C19.5621 23.5933 20.71 22.818 21.6867 21.8413C22.6635 20.8645 23.4388 19.7166 24.0128 18.3975C24.5867 17.0784 24.8737 15.6637 24.8737 14.1532H27.2904C27.2904 15.9859 26.943 17.7078 26.2482 19.3189C25.5534 20.93 24.6018 22.3397 23.3935 23.548C22.1852 24.7564 20.7754 25.7079 19.1643 26.4027C17.5532 27.0975 15.8313 27.4449 13.9987 27.4449ZM12.9112 22.6116V21.0407C11.9647 20.8192 11.1944 20.4114 10.6003 19.8173C10.0062 19.2232 9.56814 18.4428 9.2862 17.4762L11.2799 16.6907C11.5216 17.5164 11.8992 18.1357 12.4128 18.5486C12.9263 18.9614 13.5154 19.1678 14.1799 19.1678C14.8445 19.1678 15.4135 19.0117 15.8867 18.6996C16.36 18.3874 16.5966 17.8991 16.5966 17.2345C16.5966 16.6505 16.3499 16.1772 15.8565 15.8147C15.3631 15.4522 14.482 15.0394 13.2133 14.5762C12.0251 14.1532 11.1541 13.6498 10.6003 13.0657C10.0464 12.4817 9.76953 11.7164 9.76953 10.7699C9.76953 9.94421 10.0565 9.19404 10.6305 8.51938C11.2044 7.84473 11.9848 7.40671 12.9716 7.20532V5.69491H15.0862V7.20532C15.8112 7.26574 16.4707 7.55775 17.0648 8.08136C17.6589 8.60498 18.0668 9.21921 18.2883 9.92407L16.3549 10.7095C16.1938 10.2463 15.932 9.85862 15.5695 9.54647C15.207 9.23432 14.7036 9.07824 14.0591 9.07824C13.3543 9.07824 12.8155 9.22928 12.443 9.53136C12.0704 9.83345 11.8841 10.2463 11.8841 10.7699C11.8841 11.2935 12.1157 11.7064 12.5789 12.0084C13.0421 12.3105 13.8779 12.663 15.0862 13.0657C16.5362 13.5894 17.5029 14.2036 17.9862 14.9084C18.4695 15.6133 18.7112 16.3887 18.7112 17.2345C18.7112 17.8185 18.6105 18.3321 18.4091 18.7751C18.2077 19.2182 17.9409 19.5958 17.6086 19.9079C17.2763 20.2201 16.8886 20.4718 16.4456 20.6631C16.0025 20.8545 15.5293 21.0005 15.0258 21.1012V22.6116H12.9112ZM0.707031 14.1532C0.707031 12.3206 1.05443 10.5987 1.74922 8.98761C2.44401 7.3765 3.39557 5.96678 4.60391 4.75845C5.81224 3.55011 7.22196 2.59855 8.83307 1.90376C10.4442 1.20897 12.1661 0.861572 13.9987 0.861572C16.2543 0.861572 18.3286 1.37511 20.2216 2.4022C22.1147 3.42928 23.6654 4.79873 24.8737 6.51053V3.27824H27.2904V10.5282H20.0404V8.11157H23.031C22.0643 6.66157 20.7905 5.49352 19.2096 4.60741C17.6287 3.72129 15.8918 3.27824 13.9987 3.27824C12.4883 3.27824 11.0735 3.56522 9.75443 4.13918C8.43533 4.71314 7.28741 5.48848 6.31068 6.46522C5.33394 7.44195 4.55859 8.58987 3.98464 9.90897C3.41068 11.2281 3.1237 12.6428 3.1237 14.1532H0.707031Z" fill="#5F6368"/>
</svg>
