<svg width="30" height="26" viewBox="0 0 30 26" fill="none" xmlns="http://www.w3.org/2000/svg">
<path d="M14.8381 23.4238C14.9242 23.4238 15.0102 23.4023 15.0962 23.3593C15.1822 23.3163 15.2467 23.2733 15.2897 23.2303L25.8704 12.6496C26.1285 12.3915 26.3166 12.1012 26.4349 11.7786C26.5532 11.4561 26.6123 11.1335 26.6123 10.8109C26.6123 10.4668 26.5532 10.1389 26.4349 9.82703C26.3166 9.5152 26.1285 9.24101 25.8704 9.00445L20.3865 3.52058C20.15 3.26251 19.8758 3.07434 19.5639 2.95606C19.2521 2.83778 18.9242 2.77864 18.5801 2.77864C18.2575 2.77864 17.9349 2.83778 17.6123 2.95606C17.2897 3.07434 16.9994 3.26251 16.7414 3.52058L16.3865 3.87542L18.7736 6.29477C19.0962 6.59585 19.3328 6.93993 19.4833 7.32703C19.6338 7.71413 19.7091 8.12273 19.7091 8.55284C19.7091 9.45606 19.4026 10.2141 18.7897 10.827C18.1768 11.4399 17.4188 11.7464 16.5155 11.7464C16.0854 11.7464 15.6715 11.6711 15.2736 11.5206C14.8758 11.37 14.5263 11.1442 14.2252 10.8432L11.8059 8.45606L6.16071 14.1012C6.09619 14.1657 6.04781 14.2356 6.01555 14.3109C5.98329 14.3862 5.96716 14.4668 5.96716 14.5528C5.96716 14.7249 6.03168 14.8808 6.16071 15.0206C6.28974 15.1604 6.44028 15.2303 6.61232 15.2303C6.69834 15.2303 6.78437 15.2088 6.87039 15.1657C6.95641 15.1227 7.02093 15.0797 7.06394 15.0367L11.451 10.6496L13.2575 12.4561L8.90265 16.8432C8.83813 16.9077 8.78974 16.9776 8.75748 17.0528C8.72523 17.1281 8.7091 17.2087 8.7091 17.2948C8.7091 17.4668 8.77361 17.6174 8.90265 17.7464C9.03168 17.8754 9.18222 17.9399 9.35426 17.9399C9.44028 17.9399 9.5263 17.9184 9.61232 17.8754C9.69834 17.8324 9.76286 17.7894 9.80587 17.7464L14.193 13.3915L15.9994 15.198L11.6446 19.5851C11.5801 19.6281 11.5317 19.6926 11.4994 19.7786C11.4672 19.8647 11.451 19.9507 11.451 20.0367C11.451 20.2087 11.5155 20.3593 11.6446 20.4883C11.7736 20.6174 11.9242 20.6819 12.0962 20.6819C12.1822 20.6819 12.2629 20.6657 12.3381 20.6335C12.4134 20.6012 12.4833 20.5528 12.5478 20.4883L16.9349 16.1335L18.7414 17.9399L14.3543 22.327C14.2897 22.3915 14.2414 22.4614 14.2091 22.5367C14.1768 22.612 14.1607 22.6926 14.1607 22.7786C14.1607 22.9507 14.2306 23.1012 14.3704 23.2303C14.5102 23.3593 14.6661 23.4238 14.8381 23.4238ZM14.8059 26.0044C14.0102 26.0044 13.3059 25.741 12.693 25.2141C12.0801 24.6872 11.7198 24.026 11.6123 23.2303C10.8811 23.1227 10.2682 22.8217 9.77361 22.327C9.27899 21.8324 8.97791 21.2195 8.87039 20.4883C8.1392 20.3808 7.53168 20.0743 7.04781 19.569C6.56394 19.0636 6.26824 18.4561 6.16071 17.7464C5.34351 17.6389 4.67684 17.284 4.16071 16.6819C3.64458 16.0797 3.38652 15.37 3.38652 14.5528C3.38652 14.1227 3.46716 13.7088 3.62845 13.3109C3.78974 12.9131 4.02093 12.5636 4.322 12.2625L11.8059 4.8109L16.0317 9.03671C16.0747 9.10122 16.1392 9.14961 16.2252 9.18187C16.3112 9.21413 16.3973 9.23026 16.4833 9.23026C16.6768 9.23026 16.8381 9.17112 16.9672 9.05284C17.0962 8.93456 17.1607 8.77864 17.1607 8.58509C17.1607 8.49907 17.1446 8.41305 17.1123 8.32703C17.0801 8.24101 17.0317 8.17649 16.9672 8.13348L12.3543 3.52058C12.1177 3.26251 11.8435 3.07434 11.5317 2.95606C11.2198 2.83778 10.8919 2.77864 10.5478 2.77864C10.2252 2.77864 9.90265 2.83778 9.58006 2.95606C9.25748 3.07434 8.96716 3.26251 8.7091 3.52058L4.16071 8.10122C3.96716 8.29477 3.80587 8.52058 3.67684 8.77864C3.54781 9.03671 3.46179 9.29477 3.41878 9.55284C3.37576 9.8109 3.37576 10.0743 3.41878 10.3432C3.46179 10.612 3.54781 10.8647 3.67684 11.1012L1.80587 12.9722C1.44028 12.4776 1.17146 11.9346 0.99942 11.3432C0.827377 10.7518 0.762861 10.155 0.805872 9.55284C0.848883 8.95069 0.99942 8.36466 1.25748 7.79477C1.51555 7.22488 1.87039 6.71413 2.322 6.26251L6.87039 1.71413C7.38652 1.2195 7.96179 0.843159 8.59619 0.585095C9.2306 0.32703 9.88114 0.197998 10.5478 0.197998C11.2145 0.197998 11.865 0.32703 12.4994 0.585095C13.1338 0.843159 13.6983 1.2195 14.193 1.71413L14.5478 2.06897L14.9026 1.71413C15.4188 1.2195 15.994 0.843159 16.6285 0.585095C17.2629 0.32703 17.9134 0.197998 18.5801 0.197998C19.2467 0.197998 19.8973 0.32703 20.5317 0.585095C21.1661 0.843159 21.7306 1.2195 22.2252 1.71413L27.6768 7.16574C28.1715 7.66036 28.5478 8.23026 28.8059 8.87542C29.0639 9.52058 29.193 10.1765 29.193 10.8432C29.193 11.5098 29.0639 12.1604 28.8059 12.7948C28.5478 13.4292 28.1715 13.9937 27.6768 14.4883L17.0962 25.0367C16.7951 25.3378 16.4457 25.5743 16.0478 25.7464C15.65 25.9184 15.236 26.0044 14.8059 26.0044Z" fill="#5F6368"/>
</svg>
