<svg xmlns="http://www.w3.org/2000/svg" xmlns:xlink="http://www.w3.org/1999/xlink" width="264.567" height="43.597" viewBox="0 0 70 11.535">
  <defs>
    <linearGradient id="e">
      <stop offset="0" style="stop-color:#008d17;stop-opacity:1"/>
      <stop offset="1" style="stop-color:#00fc9c;stop-opacity:1"/>
    </linearGradient>
    <linearGradient id="d">
      <stop offset="0" style="stop-color:#00f08e;stop-opacity:1"/>
      <stop offset="1" style="stop-color:#008d15;stop-opacity:1"/>
    </linearGradient>
    <linearGradient id="c">
      <stop offset="0" style="stop-color:#00f08e;stop-opacity:1"/>
      <stop offset="1" style="stop-color:#008c15;stop-opacity:1"/>
    </linearGradient>
    <linearGradient id="b">
      <stop offset="0" style="stop-color:#008c15;stop-opacity:1"/>
      <stop offset=".759" style="stop-color:#00fc9b;stop-opacity:1"/>
      <stop offset="1" style="stop-color:#008e18;stop-opacity:1"/>
    </linearGradient>
    <linearGradient id="a">
      <stop offset="0" style="stop-color:#00fe9d;stop-opacity:1"/>
      <stop offset="1" style="stop-color:#009825;stop-opacity:1"/>
    </linearGradient>
    <linearGradient xlink:href="#a" id="f" x1="-103.366" x2="-103.366" y1="209.888" y2="249.735" gradientTransform="matrix(2.14765 0 0 2.14765 502.284 -366.599)" gradientUnits="userSpaceOnUse"/>
    <linearGradient xlink:href="#b" id="h" x1="45.983" x2="130.263" y1="-134.229" y2="-134.229" gradientUnits="userSpaceOnUse"/>
    <linearGradient xlink:href="#c" id="g" x1="46.126" x2="110.161" y1="-136.014" y2="-136.014" gradientUnits="userSpaceOnUse"/>
    <linearGradient xlink:href="#d" id="j" x1="50.008" x2="109.437" y1="-95.028" y2="-95.028" gradientUnits="userSpaceOnUse"/>
    <linearGradient xlink:href="#e" id="i" x1="60.054" x2="109.448" y1="-90.008" y2="-90.008" gradientUnits="userSpaceOnUse"/>
  </defs>
  <g style="stroke-width:11.8881" transform="matrix(.08412 0 0 .08412 10.657 -4.579)">
    <rect width="137.13" height="137.13" x="-126.69" y="54.434" rx="18.333" ry="18.333" style="fill:#113d01;fill-opacity:1;fill-rule:evenodd;stroke:none;stroke-width:5.94403;stroke-linecap:round;stroke-linejoin:round;paint-order:fill markers stroke;stop-color:#000"/>
    <path d="M412.081 167.974c-2.442-.59-4.825-1.46-5.296-1.93-.472-.472-1.083-.857-1.358-.857-1.011 0-6.262-5.342-7.755-7.89-3.004-5.125-3.255-7.207-3.466-28.761-.216-22.052.165-25.638 3.316-31.253 1.99-3.547 6.11-7.455 10.192-9.67l3.125-1.695 20.883-.174 20.882-.174v14.838h-15.03c-17.413 0-19.782.34-22.697 3.254-1.127 1.127-2.05 2.37-2.05 2.76 0 .39-.319.817-.71.947-1.022.341-1.03 38.428-.008 39.648a240.57 240.57 0 0 1 2.246 2.762c2.683 3.342 3.511 3.475 21.752 3.475h16.497v15.91H435.67c-12.412 0-17.115-.182-17.615-.682-.53-.53-.682-.53-.682 0 0 .81.27.837-5.292-.508zm-359.51-35.305c.002-21.491.221-35.602.572-36.866.313-1.127 1.101-2.661 1.752-3.41.65-.748 1.351-1.63 1.558-1.96 1.029-1.636 5.76-4.209 8.708-4.735 3.86-.69 40.225-.83 41.265-.16.543.35.688 2.266.569 7.528l-.16 7.058-16.195.284c-17.166.301-18.29.485-18.992 3.097-.172.64-.316 4.421-.32 8.4l-.01 7.237 15.485.15 15.485.152.166 5.682c.09 3.126.022 6.258-.153 6.961l-.32 1.279H71.337l-.15 16.905-.151 16.905-9.234.156-9.234.156.002-34.819zm65.154 34.412c-.208-.209-.378-18.62-.378-40.913V85.634h19.32v81.826h-9.282c-5.104 0-9.451-.17-9.66-.38zm34.677.015c-.216-.216-.393-17.886-.393-39.266V88.957l1.702-1.702 1.702-1.702 8.51.183 8.509.183 1.69 1.989c.93 1.094 2.009 2.756 2.4 3.693.39.938.857 1.833 1.039 1.989.181.156.984 1.563 1.783 3.125 1.505 2.943 6.477 12.39 10.167 19.32 6.79 12.751 9.357 17.764 12.822 25.043l1.1 2.314-.174-28.879-.176-28.878h18.28l-.157 39.203-.157 39.203-1.691 1.567c-1.687 1.564-1.712 1.568-10.049 1.568h-8.358l-1.7-1.63c-.936-.895-2.025-2.43-2.42-3.409-.396-.979-.864-1.907-1.04-2.064-.176-.156-1.469-2.585-2.873-5.398-1.405-2.813-2.686-5.242-2.849-5.398-.162-.156-1.428-2.458-2.814-5.114l-5.488-10.513c-6-11.488-10.439-20.547-10.457-21.343-.01-.45-.33-1.227-.71-1.727-.547-.719-.692 5.123-.692 27.843v28.753l-8.557.157c-4.706.085-8.733-.022-8.95-.237zm75.75-.645c0-.57.223-1.279.496-1.576.272-.297.95-2.458 1.507-4.802.556-2.343 1.172-4.39 1.368-4.545.196-.157.838-2.202 1.428-4.546.59-2.344 1.224-4.39 1.408-4.546.185-.156.813-2.202 1.396-4.546.583-2.344 1.25-4.517 1.484-4.83.233-.312.747-1.975 1.142-3.693.395-1.72.98-3.633 1.301-4.252.321-.62 1.04-2.793 1.598-4.83.557-2.037 1.394-4.854 1.86-6.26.464-1.407 1.656-5.243 2.647-8.524.991-3.282 2.023-6.478 2.292-7.103.27-.625.906-2.799 1.413-4.83.508-2.032 1.11-3.95 1.34-4.262.23-.312.725-1.641 1.1-2.953 1.28-4.481 2.033-4.718 14.993-4.718h11.345l1.827 1.847c1.265 1.28 2.215 3.155 3.093 6.108.696 2.344 1.536 5.03 1.865 5.967.33.937 1.07 3.418 1.646 5.513.576 2.095 1.285 4.269 1.575 4.83.29.562.85 2.428 1.245 4.147.394 1.719.917 3.38 1.16 3.693.244.313.859 2.23 1.366 4.262.508 2.031 1.156 4.205 1.44 4.83.286.625 1.07 3.054 1.742 5.398a404.33 404.33 0 0 0 4.176 13.638c.46 1.406 1.514 4.858 2.34 7.67.827 2.814 1.995 6.548 2.595 8.299 2.04 5.946 2.527 5.624-8.498 5.624h-9.59l-.894-3.268c-.492-1.797-1.683-6.08-2.647-9.518a735.47 735.47 0 0 1-2.086-7.539l-.332-1.289-13.402.153-13.402.152-.454 2.273c-.25 1.25-.701 2.784-1.004 3.41-.302.624-.942 2.926-1.422 5.113-.48 2.188-1.118 4.49-1.417 5.114-.3.626-.76 2.032-1.025 3.126l-.482 1.989-9.767.155c-9.13.145-9.766.088-9.766-.88zm48.3-35.892c0-.294-.211-.665-.47-.825-.257-.159-.94-2.412-1.515-5.005-.577-2.594-1.226-4.972-1.443-5.284-.217-.313-.828-2.486-1.358-4.83-.53-2.344-1.205-4.706-1.5-5.25-.293-.543-.842-2.78-1.218-4.972-.606-3.535-.825-3.984-1.947-3.984-1.086 0-1.356.462-1.91 3.267a93.665 93.665 0 0 1-1.542 6.393 338.405 338.405 0 0 0-1.928 7.103 736.35 736.35 0 0 1-2.398 8.95l-1.368 4.972h9.298c5.432 0 9.299-.223 9.299-.535zm36.367-2.336V88.957l1.66-1.661 1.662-1.661h8.248c8.209 0 8.256.006 9.94 1.563.93.859 3.303 4.63 5.273 8.381 1.97 3.75 4.271 8.097 5.114 9.66a807.106 807.106 0 0 1 4.198 7.955c1.466 2.813 4.029 7.671 5.695 10.797 1.667 3.125 4.4 8.495 6.073 11.933l3.736 7.67c.653 1.34.673 1.309.352-.568-.187-1.093-.469-14.454-.626-29.69l-.285-27.701H381.98l.397 36.509c.248 22.91.191 37.563-.154 39.338-.398 2.047-1.05 3.275-2.358 4.444l-1.809 1.617-8.14-.184c-9.278-.208-9.893-.485-12.305-5.533-.684-1.433-1.396-2.733-1.58-2.89-.186-.155-1.476-2.585-2.868-5.397-1.391-2.813-3.33-6.52-4.31-8.24-2.05-3.6-7.9-14.735-13.104-24.948-1.975-3.877-3.753-7.907-3.95-8.956-.196-1.049-.52-2.008-.719-2.13-.199-.124-.362 12.856-.362 28.843v29.068l-8.95.157-8.95.156zm153.536 38.556c-.517-.518-.681-10.38-.681-40.913V85.635h19.32V167.46h-8.979c-6.225 0-9.187-.208-9.66-.681zm26.026-.654c0-1.33.777-4.173 1.731-6.336.277-.625.908-2.76 1.404-4.743.496-1.984 1.14-4.03 1.43-4.546.29-.516.894-2.345 1.342-4.064.447-1.719 1.085-3.892 1.418-4.83.333-.938 1.398-4.39 2.367-7.671.97-3.282 2.381-7.823 3.138-10.091.756-2.269 1.377-4.442 1.379-4.83.002-.388.35-1.372.776-2.186.425-.814 1.093-2.86 1.484-4.546.392-1.686 1.048-3.832 1.457-4.77.41-.938 1.247-3.495 1.86-5.682 3.755-13.389 4.236-14.467 6.98-15.634.965-.411 5.338-.569 12.59-.454l11.11.177 1.472 1.59c.81.876 1.766 2.793 2.125 4.262.358 1.47.852 2.932 1.098 3.25.246.32.885 2.365 1.421 4.546.536 2.182 1.157 4.223 1.38 4.535.222.313.854 2.359 1.404 4.546.55 2.188 1.323 4.745 1.718 5.683.395.937 1.038 3.084 1.43 4.77.392 1.686 1.06 3.732 1.485 4.546.425.814.774 1.797.776 2.185.002.388.621 2.562 1.377 4.83a362.003 362.003 0 0 1 2.894 9.24c1.95 6.561 4.639 15.334 6.333 20.67.733 2.306 1.332 4.805 1.332 5.554v1.362l-9.51-.156c-9.012-.147-9.52-.215-9.69-1.292-.098-.625-.406-1.648-.683-2.273-.776-1.748-4.552-15.78-4.551-16.915 0-.937-.924-.994-13.758-.852l-13.757.152-1.019 4.546c-.56 2.5-1.253 5.057-1.54 5.682-.288.625-.962 3.054-1.497 5.398-.535 2.344-1.226 4.582-1.534 4.972-.407.517-3.099.71-9.866.71h-9.306zm46.81-38.015c-2.11-8.144-3.63-13.614-3.916-14.076-.297-.48-2.28-8.601-2.946-12.063-.197-1.022-.659-1.563-1.335-1.563-1.063 0-1.333.551-1.953 3.978-.198 1.094-.594 2.5-.88 3.125-.285.625-.895 2.67-1.354 4.546-.458 1.875-1.628 6.222-2.6 9.66-.97 3.438-1.91 6.954-2.086 7.813l-.321 1.563h18.163zm42.26 38.98c-.86-.151-1.563-.483-1.563-.738 0-.256-.465-.586-1.033-.735-2.009-.525-3.102-4.121-2.83-9.306.375-7.129 2.4-8.824 10.382-8.688 4.56.078 4.923.179 6.952 1.933 2.102 1.817 2.145 1.935 2.35 6.472.257 5.645.014 6.697-2.081 9.045-1.546 1.731-1.914 1.855-6.13 2.065-2.466.123-5.187.101-6.047-.049zm20.64-.432c-.382-.462-.443-.939-.143-1.125.288-.177.686-1.159.886-2.181.43-2.193 3.619-12.722 4.35-14.36.28-.625.924-2.798 1.431-4.83.508-2.031 1.122-3.95 1.366-4.262.244-.312.763-1.974 1.153-3.693.391-1.719 1.039-3.893 1.44-4.83.401-.938 1.186-3.495 1.744-5.682.558-2.188 1.159-4.106 1.335-4.262.176-.157.744-1.819 1.262-3.694.9-3.257 1.507-5.236 5.579-18.183.983-3.125 2.073-6.783 2.423-8.129.406-1.561 1.339-3.064 2.578-4.152l1.942-1.705 11.648.174 11.647.174 1.372 1.705c.755.938 1.782 3.111 2.283 4.83.501 1.719 1.168 3.765 1.482 4.546.313.781 1.158 3.466 1.878 5.966s1.831 6.208 2.47 8.24c.64 2.031 1.721 5.611 2.403 7.955.682 2.344 1.555 5.029 1.941 5.967.386.937 1.036 3.11 1.444 4.83.408 1.718.926 3.38 1.152 3.693.226.313.83 2.23 1.343 4.262.513 2.031 1.277 4.46 1.698 5.398.42.938 1.095 3.239 1.498 5.114s.88 3.537 1.062 3.694c.307.265 1.867 5.132 3.719 11.603.44 1.537.669 3.007.509 3.267-.368.595-17.88.61-18.814.015-.38-.241-1.21-2.475-1.847-4.963-1.754-6.863-3.774-14.067-4.257-15.18-.393-.906-1.603-.994-13.633-.994h-13.202l-1.255 4.404a356.12 356.12 0 0 0-2.328 8.665c-.591 2.344-1.477 5.221-1.97 6.393l-.894 2.131h-9.015c-7.067 0-9.158-.173-9.68-.802zm47.379-37.393c-.22-1.006-.623-2.22-.893-2.7-.27-.479-.867-2.405-1.325-4.28-.458-1.875-1.608-6.222-2.555-9.66-.946-3.438-2.015-7.593-2.375-9.234-1.239-5.657-3.02-3.422-5.077 6.37-.325 1.55-.794 3.084-1.042 3.41-.248.324-.905 2.764-1.459 5.42-.554 2.657-1.203 5.086-1.442 5.399-.353.461-1.704 5.89-1.704 6.847 0 .14 4.111.256 9.137.256h9.136zm37.07 37.83c-.215-.216-.392-18.633-.392-40.927V85.634h19.328l-.146 40.77-.146 40.772-9.126.155c-5.019.086-9.302-.021-9.518-.237z" style="fill:url(#f);fill-opacity:1;stroke-width:11.8881"/>
    <g style="stroke-width:11.8881">
      <path d="M110.025-153.523H66.82c-6.593 0-20.562 7.597-20.562 21.25v13.844s11.266-24.25 24.25-24.25h39.24z" style="fill:url(#g);fill-opacity:1;stroke:none;stroke-width:3.14539px;stroke-linecap:butt;stroke-linejoin:miter;stroke-opacity:1" transform="translate(-146.248 238.343)"/>
      <path d="M46.115-108.513v-13.204s4.628-22.87 24.91-22.87h38.388v-14.24s.331-1.035 1.159-1.035c.828 0 2.163 1.971 2.163 1.971l16.268 20.778s1.704 1.704.924 2.484c-.78.78-2.484 1.04-2.484 1.04H77.32s-21.46.686-31.204 25.076z" style="fill:url(#h);fill-opacity:1;stroke:none;stroke-width:3.14539px;stroke-linecap:butt;stroke-linejoin:miter;stroke-opacity:1" transform="translate(-146.248 238.343)"/>
      <path d="M60.187-70.968v-10.675c0-5.1 9.327-28.09 32.182-27.376h16.947v11.015H92.25c-7.86 0-18.285 7.576-18.285 19.104l-.04 8.047" style="fill:url(#i);fill-opacity:1;stroke:none;stroke-width:3.14539px;stroke-linecap:butt;stroke-linejoin:miter;stroke-opacity:1" transform="translate(-146.248 238.343)"/>
      <path d="M50.14-70.987v-14.954s3.414-33.158 35.434-33.158h23.73v10.24H92.077c-11.005 0-31.533 11.6-31.533 31.208l-.055 6.825" style="fill:url(#j);fill-opacity:1;stroke:none;stroke-width:3.14539px;stroke-linecap:butt;stroke-linejoin:miter;stroke-opacity:1" transform="translate(-146.248 238.343)"/>
    </g>
  </g>
</svg>
