<svg width="32" height="30" viewBox="0 0 32 30" fill="none" xmlns="http://www.w3.org/2000/svg">
<path d="M22.0403 13.772C22.4728 13.772 22.8353 13.6257 23.1278 13.3332C23.4203 13.0406 23.5666 12.6781 23.5666 12.2457C23.5666 11.8132 23.4203 11.4507 23.1278 11.1582C22.8353 10.8656 22.4728 10.7194 22.0403 10.7194C21.6078 10.7194 21.2453 10.8656 20.9528 11.1582C20.6603 11.4507 20.514 11.8132 20.514 12.2457C20.514 12.6781 20.6603 13.0406 20.9528 13.3332C21.2453 13.6257 21.6078 13.772 22.0403 13.772ZM9.82977 10.7194H17.4613V7.66674H9.82977V10.7194ZM4.48766 29.0352C3.62275 26.1352 2.77056 23.2415 1.93109 20.3542C1.09161 17.467 0.671875 14.5097 0.671875 11.4825C0.671875 9.14217 1.48591 7.15796 3.11398 5.52989C4.74205 3.90182 6.72626 3.08779 9.06661 3.08779H16.6982C17.4359 2.12112 18.3326 1.37068 19.3883 0.836472C20.444 0.302262 21.5824 0.0351562 22.8035 0.0351562C23.4394 0.0351562 23.98 0.257744 24.4252 0.702919C24.8703 1.14809 25.0929 1.68867 25.0929 2.32463C25.0929 2.47726 25.0738 2.62989 25.0357 2.78252C24.9975 2.93516 24.953 3.07507 24.9021 3.20226C24.8004 3.48209 24.705 3.76827 24.616 4.06081C24.5269 4.35336 24.457 4.65226 24.4061 4.95752L27.8785 8.42989H31.1982V19.0759L26.8863 20.4878L24.3298 29.0352H15.935V25.9825H12.8824V29.0352H4.48766ZM6.77714 25.9825H9.82977V22.9299H18.9877V25.9825H22.0403L24.4061 18.122L28.1456 16.8628V11.4825H26.6192L21.2771 6.14042C21.2771 5.63165 21.3089 5.14195 21.3725 4.67134C21.4361 4.20073 21.5315 3.72375 21.6587 3.24042C20.921 3.44393 20.2723 3.79371 19.7127 4.28976C19.153 4.78581 18.746 5.4027 18.4916 6.14042H9.06661C7.59117 6.14042 6.33196 6.66191 5.28898 7.70489C4.246 8.74788 3.72451 10.0071 3.72451 11.4825C3.72451 13.9755 4.06793 16.4113 4.75477 18.7898C5.44161 21.1683 6.11573 23.5659 6.77714 25.9825Z" fill="#5F6368"/>
</svg>
