<svg width="24" height="30" viewBox="0 0 24 30" fill="none" xmlns="http://www.w3.org/2000/svg">
<path d="M12.1898 29.8438C8.83068 28.9979 6.05755 27.0706 3.87047 24.0619C1.68339 21.0531 0.589844 17.7121 0.589844 14.0387V5.19375L12.1898 0.84375L23.7898 5.19375V14.0387C23.7898 17.7121 22.6963 21.0531 20.5092 24.0619C18.3221 27.0706 15.549 28.9979 12.1898 29.8438ZM12.1898 26.7987C14.534 26.0737 16.4915 24.6419 18.0623 22.5031C19.6332 20.3644 20.5515 17.9779 20.8173 15.3438H12.1898V3.925L3.48984 7.1875V14.6912C3.48984 14.8604 3.51401 15.0779 3.56234 15.3438H12.1898V26.7987Z" fill="#5F6368"/>
</svg>
