<svg width="34" height="34" viewBox="0 0 34 34" fill="none" xmlns="http://www.w3.org/2000/svg">
<path d="M19.9572 18.1389C18.8192 18.1389 17.852 17.7406 17.0554 16.944C16.2588 16.1474 15.8605 15.1802 15.8605 14.0422C15.8605 12.9043 16.2588 11.937 17.0554 11.1404C17.852 10.3439 18.8192 9.94558 19.9572 9.94558C21.0951 9.94558 22.0624 10.3439 22.859 11.1404C23.6555 11.937 24.0538 12.9043 24.0538 14.0422C24.0538 15.1802 23.6555 16.1474 22.859 16.944C22.0624 17.7406 21.0951 18.1389 19.9572 18.1389ZM10.3984 22.2355C9.64731 22.2355 9.00436 21.9681 8.46952 21.4332C7.93468 20.8984 7.66726 20.2555 7.66726 19.5044V8.58003C7.66726 7.82898 7.93468 7.18604 8.46952 6.6512C9.00436 6.11636 9.64731 5.84894 10.3984 5.84894H29.516C30.2671 5.84894 30.91 6.11636 31.4448 6.6512C31.9797 7.18604 32.2471 7.82898 32.2471 8.58003V19.5044C32.2471 20.2555 31.9797 20.8984 31.4448 21.4332C30.91 21.9681 30.2671 22.2355 29.516 22.2355H10.3984ZM13.1294 19.5044H26.7849C26.7849 18.7534 27.0523 18.1104 27.5872 17.5756C28.122 17.0407 28.765 16.7733 29.516 16.7733V11.3111C28.765 11.3111 28.122 11.0437 27.5872 10.5089C27.0523 9.97403 26.7849 9.33108 26.7849 8.58003H13.1294C13.1294 9.33108 12.862 9.97403 12.3272 10.5089C11.7924 11.0437 11.1494 11.3111 10.3984 11.3111V16.7733C11.1494 16.7733 11.7924 17.0407 12.3272 17.5756C12.862 18.1104 13.1294 18.7534 13.1294 19.5044ZM28.1505 27.6977H4.93617C4.18512 27.6977 3.54218 27.4303 3.00734 26.8954C2.4725 26.3606 2.20508 25.7176 2.20508 24.9666V9.94558H4.93617V24.9666H28.1505V27.6977Z" fill="black"/>
</svg>
