<svg width="30" height="30" viewBox="0 0 30 30" fill="none" xmlns="http://www.w3.org/2000/svg">
<path d="M3.87031 25.5759V25.5884H3.88281H25.6328H25.6453V25.5759V24.1259C25.6453 23.7914 25.5617 23.4871 25.3943 23.2132C25.227 22.9395 25.0064 22.7265 24.7326 22.5744L24.7322 22.5741C23.1001 21.7581 21.4529 21.1461 19.7905 20.738C18.1281 20.33 16.4505 20.1259 14.7578 20.1259C13.0651 20.1259 11.3876 20.33 9.72515 20.738C8.06273 21.1461 6.4155 21.7581 4.78347 22.5741L4.78299 22.5744C4.50918 22.7265 4.28861 22.9395 4.12137 23.2132C3.95397 23.4871 3.87031 23.7914 3.87031 24.1259V25.5759ZM14.7578 14.6884C12.7674 14.6884 11.0638 13.9799 9.64634 12.5624C8.22887 11.1449 7.52031 9.44134 7.52031 7.45093C7.52031 5.46052 8.22887 3.75692 9.64634 2.33945C11.0638 0.921988 12.7674 0.213428 14.7578 0.213428C16.7482 0.213428 18.4518 0.921988 19.8693 2.33945C21.2868 3.75692 21.9953 5.46052 21.9953 7.45093C21.9953 9.44134 21.2868 11.1449 19.8693 12.5624C18.4518 13.9799 16.7482 14.6884 14.7578 14.6884ZM0.270313 29.1884V24.1259C0.270313 23.1011 0.534017 22.1594 1.06143 21.3004C1.5889 20.4414 2.28953 19.786 3.16344 19.334C5.03555 18.3979 6.93777 17.6959 8.87013 17.2279C10.8025 16.7599 12.7651 16.5259 14.7578 16.5259C16.7506 16.5259 18.7131 16.7599 20.6455 17.2279C22.5779 17.6959 24.4801 18.3979 26.3522 19.334C27.2261 19.786 27.9267 20.4414 28.4542 21.3004C28.9816 22.1594 29.2453 23.1011 29.2453 24.1259V29.1884H0.270313ZM14.7578 11.0884C15.758 11.0884 16.6146 10.7321 17.3268 10.0199C18.039 9.3077 18.3953 8.45114 18.3953 7.45093C18.3953 6.45071 18.039 5.59415 17.3268 4.88193C16.6146 4.16971 15.758 3.81343 14.7578 3.81343C13.7576 3.81343 12.901 4.16971 12.1888 4.88193C11.4766 5.59415 11.1203 6.45071 11.1203 7.45093C11.1203 8.45114 11.4766 9.3077 12.1888 10.0199C12.901 10.7321 13.7576 11.0884 14.7578 11.0884Z" fill="#5F6368" stroke="#5F6368" stroke-width="0.025"/>
</svg>
