<?xml version="1.0" encoding="UTF-8" standalone="no"?>
<svg
   id="svg8"
   version="1.1"
   viewBox="0 0 11.535076 11.535077"
   height="11.535077mm"
   width="11.535076mm"
   xmlns:xlink="http://www.w3.org/1999/xlink"
   xmlns="http://www.w3.org/2000/svg"
   xmlns:svg="http://www.w3.org/2000/svg"
   xmlns:rdf="http://www.w3.org/1999/02/22-rdf-syntax-ns#"
   xmlns:cc="http://creativecommons.org/ns#"
   xmlns:dc="http://purl.org/dc/elements/1.1/">
  <defs
     id="defs2">
    <linearGradient
       id="linearGradient108711">
      <stop
         style="stop-color:#008d17;stop-opacity:1;"
         offset="0"
         id="stop108707" />
      <stop
         style="stop-color:#00fc9c;stop-opacity:1;"
         offset="1"
         id="stop108709" />
    </linearGradient>
    <linearGradient
       id="linearGradient104713">
      <stop
         style="stop-color:#00f08e;stop-opacity:1;"
         offset="0"
         id="stop104709" />
      <stop
         style="stop-color:#008d15;stop-opacity:1;"
         offset="1"
         id="stop104711" />
    </linearGradient>
    <linearGradient
       id="linearGradient99382">
      <stop
         style="stop-color:#00f08e;stop-opacity:1;"
         offset="0"
         id="stop99378" />
      <stop
         style="stop-color:#008c15;stop-opacity:1;"
         offset="1"
         id="stop99380" />
    </linearGradient>
    <linearGradient
       id="linearGradient82866">
      <stop
         style="stop-color:#008c15;stop-opacity:1;"
         offset="0"
         id="stop82862" />
      <stop
         style="stop-color:#00fc9b;stop-opacity:1;"
         offset="0.75904489"
         id="stop83544" />
      <stop
         style="stop-color:#008e18;stop-opacity:1;"
         offset="1"
         id="stop82864" />
    </linearGradient>
    <linearGradient
       xlink:href="#linearGradient82866"
       id="linearGradient82868"
       x1="45.982769"
       y1="-134.22935"
       x2="130.26286"
       y2="-134.22935"
       gradientUnits="userSpaceOnUse" />
    <linearGradient
       xlink:href="#linearGradient99382"
       id="linearGradient99384"
       x1="46.125584"
       y1="-136.01447"
       x2="110.16094"
       y2="-136.01447"
       gradientUnits="userSpaceOnUse" />
    <linearGradient
       xlink:href="#linearGradient104713"
       id="linearGradient104715"
       x1="50.008183"
       y1="-95.028038"
       x2="109.43712"
       y2="-95.028038"
       gradientUnits="userSpaceOnUse" />
    <linearGradient
       xlink:href="#linearGradient108711"
       id="linearGradient108713"
       x1="60.05439"
       y1="-90.008263"
       x2="109.44809"
       y2="-90.008263"
       gradientUnits="userSpaceOnUse" />
  </defs>
  <metadata
     id="metadata5">
    <rdf:RDF>
      <cc:Work
         rdf:about="">
        <dc:format>image/svg+xml</dc:format>
        <dc:type
           rdf:resource="http://purl.org/dc/dcmitype/StillImage" />
      </cc:Work>
    </rdf:RDF>
  </metadata>
  <rect
     style="fill:#113d01;fill-opacity:1;fill-rule:evenodd;stroke:none;stroke-width:0.499999;stroke-linecap:round;stroke-linejoin:round;paint-order:fill markers stroke;stop-color:#000000"
     id="rect9300"
     width="11.535076"
     height="11.535076"
     x="-7.8859513e-15"
     y="1.0469086e-14"
     ry="1.5420934"
     rx="1.5420934" />
  <g
     id="g122153"
     transform="matrix(0.08411791,0,0,0.08411791,-1.6452125,15.470037)"
     style="stroke-width:11.8881">
    <path
       style="fill:url(#linearGradient99384);fill-opacity:1;stroke:none;stroke-width:3.14539px;stroke-linecap:butt;stroke-linejoin:miter;stroke-opacity:1"
       d="m 110.02523,-153.52326 c 0,0 -32.221016,0 -43.205498,0 -6.592642,0 -20.561856,7.59741 -20.561856,21.25031 v 13.84384 c 0,0 11.266025,-24.2506 24.250597,-24.2506 h 39.240137 z"
       id="path65233" />
    <path
       style="fill:url(#linearGradient82868);fill-opacity:1;stroke:none;stroke-width:3.14539px;stroke-linecap:butt;stroke-linejoin:miter;stroke-opacity:1"
       d="m 46.115059,-108.51344 v -13.20405 c 0,0 4.628224,-22.86887 24.910733,-22.86887 20.282508,0 38.387028,0 38.387028,0 v -14.24112 c 0,0 0.33135,-1.03459 1.15902,-1.03459 0.82768,0 2.16323,1.97141 2.16323,1.97141 l 16.26803,20.77765 c 0,0 1.70403,1.70403 0.92422,2.48384 -0.77981,0.77981 -2.48385,1.03975 -2.48385,1.03975 H 77.318628 c 0,0 -21.459041,0.68615 -31.203569,25.07598 z"
       id="path65231" />
    <path
       style="fill:url(#linearGradient108713);fill-opacity:1;stroke:none;stroke-width:3.14539px;stroke-linecap:butt;stroke-linejoin:miter;stroke-opacity:1"
       d="m 60.186682,-70.967644 c 0,0 0,-5.575625 0,-10.675469 0,-5.099844 9.327804,-28.089517 32.182707,-27.375857 H 109.3158 v 11.014545 H 92.249741 c -7.858846,0 -18.284497,7.576851 -18.284497,19.104237 l -0.03947,8.047638"
       id="path79619" />
    <path
       style="fill:url(#linearGradient104715);fill-opacity:1;stroke:none;stroke-width:3.14539px;stroke-linecap:butt;stroke-linejoin:miter;stroke-opacity:1"
       d="M 50.140473,-70.987202 V -85.94083 c 0,0 3.413328,-33.15804 35.433597,-33.15804 h 23.73076 v 10.23999 c 0,0 -9.666936,0 -17.229183,0 -11.005067,0 -31.53265,11.600043 -31.53265,31.207563 l -0.05527,6.825332"
       id="path68698" />
  </g>
</svg>
