<svg width="32" height="32" viewBox="0 0 32 32" fill="none" xmlns="http://www.w3.org/2000/svg">
<path d="M5.16797 25.3941V22.8058H7.7563V13.7466C7.7563 11.9564 8.29554 10.3656 9.37401 8.9744C10.4525 7.58317 11.8545 6.67187 13.5801 6.24048V5.33456C13.5801 4.79532 13.7688 4.33697 14.1463 3.95951C14.5237 3.58204 14.9821 3.39331 15.5213 3.39331C16.0605 3.39331 16.5189 3.58204 16.8964 3.95951C17.2738 4.33697 17.4626 4.79532 17.4626 5.33456V6.24048C19.1881 6.67187 20.5901 7.58317 21.6686 8.9744C22.7471 10.3656 23.2863 11.9564 23.2863 13.7466V22.8058H25.8746V25.3941H5.16797ZM15.5213 29.2766C14.8095 29.2766 14.2002 29.0232 13.6933 28.5163C13.1864 28.0094 12.933 27.4001 12.933 26.6883H18.1096C18.1096 27.4001 17.8562 28.0094 17.3493 28.5163C16.8424 29.0232 16.2331 29.2766 15.5213 29.2766ZM10.3446 22.8058H20.698V13.7466C20.698 12.3231 20.1911 11.1044 19.1773 10.0906C18.1636 9.07686 16.9449 8.56998 15.5213 8.56998C14.0977 8.56998 12.879 9.07686 11.8653 10.0906C10.8515 11.1044 10.3446 12.3231 10.3446 13.7466V22.8058Z" fill="white"/>
</svg>
